# This file uses centimeters as units for non-parametric coordinates.

mtllib BAU_Baixo.mtl
g default
v -37.056740 -0.859566 6.493286
v -34.805229 -0.859566 6.493286
v -37.056740 -0.118690 6.493286
v -34.805229 -0.118690 6.493286
v -37.056740 -0.118690 5.394226
v -34.805229 -0.118690 5.394226
v -37.056740 -0.859566 5.394226
v -34.805229 -0.859566 5.394226
v -36.884640 -0.118690 6.348328
v -34.977333 -0.118690 6.348328
v -34.977333 -0.118690 5.539215
v -36.884640 -0.118690 5.539215
v -36.884640 -0.657959 6.348328
v -34.977333 -0.657959 6.348328
v -34.977333 -0.657959 5.539215
v -36.884640 -0.657959 5.539215
v -36.908997 -0.859566 6.493286
v -36.908997 -0.859566 5.394226
v -36.908997 -0.118690 5.394226
v -36.759483 -0.118690 5.539215
v -36.759483 -0.657959 5.539215
v -36.759483 -0.657959 6.348328
v -36.759483 -0.118690 6.348328
v -36.908997 -0.118690 6.493286
v -36.484810 -0.859566 6.493286
v -36.484810 -0.118690 6.493286
v -36.400143 -0.118690 6.348328
v -36.400143 -0.657959 6.348328
v -36.400143 -0.657959 5.539215
v -36.400143 -0.118690 5.539215
v -36.484810 -0.118690 5.394226
v -36.484810 -0.859566 5.394226
v -34.933228 -0.859566 6.493286
v -34.933228 -0.118690 6.493286
v -35.085766 -0.118690 6.348328
v -35.085766 -0.657959 6.348328
v -35.085766 -0.657959 5.539215
v -35.085766 -0.118690 5.539215
v -34.933228 -0.118690 5.394226
v -34.933228 -0.859566 5.394226
v -35.405445 -0.859566 6.493286
v -35.405445 -0.859566 5.394226
v -35.405445 -0.118690 5.394226
v -35.485786 -0.118690 5.539215
v -35.485786 -0.657959 5.539215
v -35.485786 -0.657959 6.348328
v -35.485786 -0.118690 6.348328
v -35.405445 -0.118690 6.493286
v -35.519115 -0.859566 6.493286
v -35.519115 -0.859566 5.394226
v -35.519115 -0.118690 5.394226
v -35.582085 -0.118690 5.539215
v -35.582085 -0.657959 5.539215
v -35.582085 -0.657959 6.348328
v -35.582085 -0.118690 6.348328
v -35.519115 -0.118690 6.493286
v -36.326496 -0.859566 6.493286
v -36.326496 -0.859566 5.394226
v -36.326496 -0.118690 5.394226
v -36.266033 -0.118690 5.539215
v -36.266033 -0.657959 5.539215
v -36.266033 -0.657959 6.348328
v -36.266033 -0.118690 6.348328
v -36.326496 -0.118690 6.493286
v -37.056740 -0.859566 6.528809
v -36.908997 -0.859566 6.528809
v -36.908997 -0.118690 6.528809
v -37.056740 -0.118690 6.528809
v -34.933228 -0.859566 6.528809
v -34.933228 -0.118690 6.528809
v -34.805229 -0.859566 6.528809
v -34.805229 -0.118690 6.528809
v -35.519115 -0.118690 6.528809
v -35.519115 -0.859566 6.528809
v -35.405445 -0.859566 6.528809
v -35.405445 -0.118690 6.528809
v -36.484810 -0.859566 6.528809
v -36.484810 -0.118690 6.528809
v -36.326496 -0.859566 6.528809
v -36.326496 -0.118690 6.528809
v -37.056740 -0.118690 5.358704
v -36.908997 -0.118690 5.358704
v -36.908997 -0.859566 5.358704
v -37.056740 -0.859566 5.358704
v -34.933228 -0.118690 5.358704
v -34.933228 -0.859566 5.358704
v -34.805229 -0.118690 5.358704
v -34.805229 -0.859566 5.358704
v -35.519115 -0.859566 5.358704
v -35.519115 -0.118690 5.358704
v -35.405445 -0.118690 5.358704
v -35.405445 -0.859566 5.358704
v -36.484810 -0.118690 5.358704
v -36.484810 -0.859566 5.358704
v -36.326496 -0.118690 5.358704
v -36.326496 -0.859566 5.358704
vt 0.375000 0.000000
vt 0.625000 0.000000
vt 0.375000 0.250000
vt 0.625000 0.250000
vt 0.375000 0.500000
vt 0.625000 0.500000
vt 0.375000 0.750000
vt 0.625000 0.750000
vt 0.375000 1.000000
vt 0.625000 1.000000
vt 0.875000 0.000000
vt 0.875000 0.250000
vt 0.125000 0.000000
vt 0.125000 0.250000
vt 0.375000 0.250000
vt 0.625000 0.250000
vt 0.625000 0.500000
vt 0.375000 0.500000
vt 0.375000 0.250000
vt 0.625000 0.250000
vt 0.625000 0.500000
vt 0.375000 0.500000
vt 0.391405 0.000000
vt 0.391405 1.000000
vt 0.391405 0.750000
vt 0.391405 0.500000
vt 0.391405 0.500000
vt 0.391405 0.500000
vt 0.391405 0.250000
vt 0.391405 0.250000
vt 0.391405 0.250000
vt 0.438505 0.000000
vt 0.438505 1.000000
vt 0.438505 0.250000
vt 0.438505 0.250000
vt 0.438505 0.250000
vt 0.438505 0.500000
vt 0.438505 0.500000
vt 0.438505 0.500000
vt 0.438505 0.750000
vt 0.610787 0.000000
vt 0.610787 1.000000
vt 0.610787 0.250000
vt 0.610787 0.250000
vt 0.610787 0.250000
vt 0.610787 0.500000
vt 0.610787 0.500000
vt 0.610787 0.500000
vt 0.610787 0.750000
vt 0.558354 0.000000
vt 0.558354 1.000000
vt 0.558354 0.750000
vt 0.558354 0.500000
vt 0.558354 0.500000
vt 0.558354 0.500000
vt 0.558354 0.250000
vt 0.558354 0.250000
vt 0.558354 0.250000
vt 0.545732 0.000000
vt 0.545732 1.000000
vt 0.545732 0.750000
vt 0.545732 0.500000
vt 0.545732 0.500000
vt 0.545732 0.500000
vt 0.545732 0.250000
vt 0.545732 0.250000
vt 0.545732 0.250000
vt 0.456084 0.000000
vt 0.456084 1.000000
vt 0.456084 0.750000
vt 0.456084 0.500000
vt 0.456084 0.500000
vt 0.456084 0.500000
vt 0.456084 0.250000
vt 0.456084 0.250000
vt 0.456084 0.250000
vt 0.375000 0.000000
vt 0.391405 0.000000
vt 0.391405 0.250000
vt 0.375000 0.250000
vt 0.610787 0.250000
vt 0.610787 0.000000
vt 0.625000 0.000000
vt 0.625000 0.250000
vt 0.545732 0.250000
vt 0.545732 0.000000
vt 0.558354 0.000000
vt 0.558354 0.250000
vt 0.438505 0.250000
vt 0.438505 0.000000
vt 0.456084 0.000000
vt 0.456084 0.250000
vt 0.375000 0.500000
vt 0.391405 0.500000
vt 0.391405 0.750000
vt 0.375000 0.750000
vt 0.610787 0.750000
vt 0.610787 0.500000
vt 0.625000 0.500000
vt 0.625000 0.750000
vt 0.545732 0.750000
vt 0.545732 0.500000
vt 0.558354 0.500000
vt 0.558354 0.750000
vt 0.438505 0.750000
vt 0.438505 0.500000
vt 0.456084 0.500000
vt 0.456084 0.750000
vn 0.000000 0.000000 1.000000
vn 0.000000 0.000000 1.000000
vn 0.000000 0.000000 1.000000
vn 0.000000 0.000000 1.000000
vn 0.000000 1.000000 0.000000
vn 0.000000 1.000000 0.000000
vn 0.000000 1.000000 0.000000
vn 0.000000 1.000000 0.000000
vn 0.000000 0.000000 -1.000000
vn 0.000000 0.000000 -1.000000
vn 0.000000 0.000000 -1.000000
vn 0.000000 0.000000 -1.000000
vn 0.000000 -1.000000 0.000000
vn 0.000000 -1.000000 0.000000
vn 0.000000 -1.000000 0.000000
vn 0.000000 -1.000000 0.000000
vn 1.000000 0.000000 0.000000
vn 1.000000 0.000000 0.000000
vn 1.000000 0.000000 0.000000
vn 1.000000 0.000000 0.000000
vn -1.000000 0.000000 0.000000
vn -1.000000 0.000000 0.000000
vn -1.000000 0.000000 0.000000
vn -1.000000 0.000000 0.000000
vn 0.000000 1.000000 0.000000
vn 0.000000 1.000000 0.000000
vn 0.000000 1.000000 -0.000000
vn 0.000000 1.000000 -0.000000
vn 0.000000 1.000000 0.000000
vn 0.000000 1.000000 0.000000
vn 0.000000 1.000000 0.000000
vn 0.000000 1.000000 0.000000
vn 0.000000 1.000000 0.000000
vn 0.000000 1.000000 0.000000
vn 0.000000 1.000000 0.000000
vn 0.000000 1.000000 0.000000
vn 0.000000 1.000000 0.000000
vn 0.000000 1.000000 0.000000
vn 0.000000 1.000000 0.000000
vn 0.000000 1.000000 0.000000
vn 0.000000 0.000000 -1.000000
vn 0.000000 0.000000 -1.000000
vn 0.000000 0.000000 -1.000000
vn 0.000000 0.000000 -1.000000
vn -1.000000 0.000000 0.000000
vn -1.000000 0.000000 0.000000
vn -1.000000 0.000000 0.000000
vn -1.000000 0.000000 0.000000
vn 0.000000 0.000000 1.000000
vn 0.000000 0.000000 1.000000
vn 0.000000 0.000000 1.000000
vn 0.000000 0.000000 1.000000
vn 1.000000 0.000000 0.000000
vn 1.000000 0.000000 0.000000
vn 1.000000 0.000000 0.000000
vn 1.000000 0.000000 0.000000
vn 0.000000 -1.000000 0.000000
vn 0.000000 -1.000000 0.000000
vn 0.000000 0.000000 -1.000000
vn 0.000000 0.000000 -1.000000
vn 0.000000 0.000000 -1.000000
vn 0.000000 0.000000 -1.000000
vn 0.000000 1.000000 0.000000
vn 0.000000 1.000000 0.000000
vn 0.000000 0.000000 1.000000
vn 0.000000 0.000000 1.000000
vn 0.000000 1.000000 0.000000
vn 0.000000 1.000000 0.000000
vn 0.000000 0.000000 -1.000000
vn 0.000000 0.000000 -1.000000
vn 0.000000 1.000000 0.000000
vn 0.000000 1.000000 0.000000
vn 0.000000 0.000000 1.000000
vn 0.000000 0.000000 1.000000
vn 0.000000 0.000000 1.000000
vn 0.000000 0.000000 1.000000
vn 0.000000 0.000000 1.000000
vn 0.000000 0.000000 1.000000
vn 0.000000 0.000000 1.000000
vn 0.000000 0.000000 1.000000
vn 0.000000 1.000000 0.000000
vn 0.000000 1.000000 0.000000
vn 0.000000 1.000000 0.000000
vn 0.000000 1.000000 0.000000
vn 0.000000 0.000000 -1.000000
vn 0.000000 0.000000 -1.000000
vn 0.000000 0.000000 -1.000000
vn 0.000000 0.000000 -1.000000
vn 0.000000 1.000000 0.000000
vn 0.000000 1.000000 0.000000
vn 0.000000 1.000000 0.000000
vn 0.000000 1.000000 0.000000
vn 0.000000 0.000000 1.000000
vn 0.000000 0.000000 1.000000
vn 0.000000 0.000000 1.000000
vn 0.000000 0.000000 1.000000
vn 0.000000 1.000000 0.000000
vn 0.000000 1.000000 0.000000
vn 0.000000 1.000000 0.000000
vn 0.000000 1.000000 0.000000
vn 0.000000 0.000000 -1.000000
vn 0.000000 0.000000 -1.000000
vn 0.000000 0.000000 -1.000000
vn 0.000000 0.000000 -1.000000
vn 0.000000 -1.000000 0.000000
vn 0.000000 -1.000000 0.000000
vn 0.000000 -1.000000 0.000000
vn 0.000000 -1.000000 0.000000
vn 0.000000 0.000000 1.000000
vn 0.000000 0.000000 1.000000
vn 0.000000 0.000000 1.000000
vn 0.000000 0.000000 1.000000
vn 0.000000 1.000000 -0.000000
vn 0.000000 1.000000 -0.000000
vn 0.000000 0.000000 -1.000000
vn 0.000000 0.000000 -1.000000
vn 0.000000 1.000000 0.000000
vn 0.000000 1.000000 0.000000
vn 0.000000 0.000000 1.000000
vn 0.000000 0.000000 1.000000
vn 0.000000 1.000000 0.000000
vn 0.000000 1.000000 0.000000
vn 0.000000 0.000000 -1.000000
vn 0.000000 0.000000 -1.000000
vn 0.000000 0.000000 -1.000000
vn 0.000000 0.000000 -1.000000
vn 0.000000 -1.000000 0.000000
vn 0.000000 -1.000000 0.000000
vn 0.000000 -1.000000 0.000000
vn 0.000000 -1.000000 0.000000
vn 0.000000 0.000000 -1.000000
vn 0.000000 0.000000 -1.000000
vn 0.000000 0.000000 -1.000000
vn 0.000000 0.000000 -1.000000
vn 0.000000 1.000000 0.000000
vn 0.000000 1.000000 0.000000
vn 0.000000 0.000000 1.000000
vn 0.000000 0.000000 1.000000
vn 0.000000 1.000000 0.000000
vn 0.000000 1.000000 0.000000
vn 0.000000 0.000000 -1.000000
vn 0.000000 0.000000 -1.000000
vn 0.000000 1.000000 -0.000000
vn 0.000000 1.000000 -0.000000
vn 0.000000 0.000000 1.000000
vn 0.000000 0.000000 1.000000
vn 0.000000 0.000000 1.000000
vn 0.000000 0.000000 1.000000
vn 0.000000 -1.000000 0.000000
vn 0.000000 -1.000000 0.000000
vn 0.000000 0.000000 -1.000000
vn 0.000000 0.000000 -1.000000
vn 0.000000 0.000000 -1.000000
vn 0.000000 0.000000 -1.000000
vn 0.000000 1.000000 0.000000
vn 0.000000 1.000000 0.000000
vn 0.000000 0.000000 1.000000
vn 0.000000 0.000000 1.000000
vn 0.000000 1.000000 0.000000
vn 0.000000 1.000000 0.000000
vn 0.000000 0.000000 -1.000000
vn 0.000000 0.000000 -1.000000
vn 0.000000 1.000000 -0.000000
vn 0.000000 1.000000 -0.000000
vn 0.000000 0.000000 1.000000
vn 0.000000 0.000000 1.000000
vn 0.000000 0.000000 1.000000
vn 0.000000 0.000000 1.000000
vn 0.000000 0.000000 -1.000000
vn 0.000000 0.000000 -1.000000
vn 0.000000 0.000000 -1.000000
vn 0.000000 0.000000 -1.000000
vn 0.000000 0.000000 1.000000
vn 0.000000 0.000000 1.000000
vn 0.000000 0.000000 1.000000
vn 0.000000 0.000000 1.000000
vn 0.000000 -1.000000 0.000000
vn 0.000000 -1.000000 0.000000
vn 1.000000 0.000000 0.000000
vn 1.000000 0.000000 0.000000
vn 1.000000 0.000000 0.000000
vn 1.000000 0.000000 0.000000
vn 0.000000 1.000000 0.000000
vn 0.000000 1.000000 0.000000
vn -1.000000 0.000000 0.000000
vn -1.000000 0.000000 0.000000
vn -1.000000 0.000000 0.000000
vn -1.000000 0.000000 0.000000
vn -1.000000 0.000000 0.000000
vn -1.000000 0.000000 0.000000
vn 0.000000 -1.000000 0.000000
vn 0.000000 -1.000000 0.000000
vn 1.000000 0.000000 0.000000
vn 1.000000 0.000000 0.000000
vn 0.000000 1.000000 0.000000
vn 0.000000 1.000000 0.000000
vn -1.000000 0.000000 0.000000
vn -1.000000 0.000000 0.000000
vn -1.000000 0.000000 0.000000
vn -1.000000 0.000000 0.000000
vn 0.000000 -1.000000 0.000000
vn 0.000000 -1.000000 0.000000
vn 1.000000 0.000000 0.000000
vn 1.000000 0.000000 0.000000
vn 1.000000 0.000000 0.000000
vn 1.000000 0.000000 0.000000
vn 0.000000 1.000000 0.000000
vn 0.000000 1.000000 0.000000
vn -1.000000 0.000000 0.000000
vn -1.000000 0.000000 0.000000
vn -1.000000 0.000000 0.000000
vn -1.000000 0.000000 0.000000
vn 0.000000 -1.000000 0.000000
vn 0.000000 -1.000000 0.000000
vn 1.000000 0.000000 0.000000
vn 1.000000 0.000000 0.000000
vn 1.000000 0.000000 0.000000
vn 1.000000 0.000000 0.000000
vn 0.000000 1.000000 0.000000
vn 0.000000 1.000000 0.000000
vn 0.000000 1.000000 0.000000
vn 0.000000 1.000000 0.000000
vn 1.000000 0.000000 0.000000
vn 1.000000 0.000000 0.000000
vn 1.000000 0.000000 0.000000
vn 1.000000 0.000000 0.000000
vn 0.000000 -1.000000 0.000000
vn 0.000000 -1.000000 0.000000
vn -1.000000 0.000000 0.000000
vn -1.000000 0.000000 0.000000
vn -1.000000 0.000000 0.000000
vn -1.000000 0.000000 0.000000
vn -1.000000 0.000000 0.000000
vn -1.000000 0.000000 0.000000
vn 0.000000 1.000000 0.000000
vn 0.000000 1.000000 0.000000
vn 1.000000 0.000000 0.000000
vn 1.000000 0.000000 0.000000
vn 0.000000 -1.000000 0.000000
vn 0.000000 -1.000000 0.000000
vn -1.000000 0.000000 0.000000
vn -1.000000 0.000000 0.000000
vn -1.000000 0.000000 0.000000
vn -1.000000 0.000000 0.000000
vn 0.000000 1.000000 0.000000
vn 0.000000 1.000000 0.000000
vn 1.000000 0.000000 0.000000
vn 1.000000 0.000000 0.000000
vn 1.000000 0.000000 0.000000
vn 1.000000 0.000000 0.000000
vn 0.000000 -1.000000 0.000000
vn 0.000000 -1.000000 0.000000
vn -1.000000 0.000000 0.000000
vn -1.000000 0.000000 0.000000
vn -1.000000 0.000000 0.000000
vn -1.000000 0.000000 0.000000
vn 0.000000 1.000000 0.000000
vn 0.000000 1.000000 0.000000
vn 1.000000 0.000000 0.000000
vn 1.000000 0.000000 0.000000
vn 1.000000 0.000000 0.000000
vn 1.000000 0.000000 0.000000
vn 0.000000 -1.000000 0.000000
vn 0.000000 -1.000000 0.000000
s off
g BAU_Baixo
usemtl initialShadingGroup
f 24/31/1 17/23/2 25/32/3 26/34/4
s 1
f 21/28/5 22/29/6 28/36/7 29/37/8
s off
f 18/25/9 19/26/10 31/39/11 32/40/12
s 2
f 17/24/13 18/25/14 32/40/15 25/33/16
s 3
f 2/2/17 8/11/18 6/12/19 4/4/20
s 4
f 7/13/21 1/1/22 3/3/23 5/14/24
s 5
f 23/30/25 24/31/26 26/34/27 27/35/28
s off
f 4/4/29 6/6/30 11/17/31 10/16/32
s 6
f 30/38/33 31/39/34 19/26/35 20/27/36
s off
f 5/5/37 3/3/38 9/15/39 12/18/40
s 7
f 22/29/41 23/30/42 27/35/43 28/36/44
s off
f 10/16/45 11/17/46 15/21/47 14/20/48
s 8
f 29/37/49 30/38/50 20/27/51 21/28/52
s off
f 12/18/53 9/15/54 13/19/55 16/22/56
s 2
f 7/7/57 18/25/14 17/24/13 1/9/58
s off
f 81/93/59 82/94/60 83/95/61 84/96/62
s 6
f 20/27/36 19/26/35 5/5/63 12/18/64
s 8
f 21/28/52 20/27/51 12/18/65 16/22/66
s 1
f 13/19/67 22/29/6 21/28/5 16/22/68
s 7
f 9/15/69 23/30/42 22/29/41 13/19/70
s 5
f 3/3/71 24/31/26 23/30/25 9/15/72
s off
f 65/77/73 66/78/74 67/79/75 68/80/76
f 48/58/77 41/50/78 33/41/79 34/43/80
s 5
f 47/57/81 48/58/82 34/43/83 35/44/84
s 7
f 46/56/85 47/57/86 35/44/87 36/45/88
s 1
f 45/55/89 46/56/90 36/45/91 37/46/92
s 8
f 37/46/93 38/47/94 44/54/95 45/55/96
s 6
f 38/47/97 39/48/98 43/53/99 44/54/100
s off
f 42/52/101 43/53/102 39/48/103 40/49/104
s 2
f 41/51/105 42/52/106 40/49/107 33/42/108
s off
f 70/81/109 69/82/110 71/83/111 72/84/112
s 5
f 35/44/84 34/43/83 4/4/113 10/16/114
s 7
f 36/45/88 35/44/87 10/16/115 14/20/116
s 1
f 37/46/92 36/45/91 14/20/117 15/21/118
s 8
f 11/17/119 38/47/94 37/46/93 15/21/120
s 6
f 6/6/121 39/48/98 38/47/97 11/17/122
s off
f 86/97/123 85/98/124 87/99/125 88/100/126
s 2
f 33/42/108 40/49/107 8/8/127 2/10/128
f 49/60/129 50/61/130 42/52/106 41/51/105
s off
f 89/101/131 90/102/132 91/103/133 92/104/134
s 6
f 44/54/100 43/53/99 51/62/135 52/63/136
s 8
f 45/55/96 44/54/95 52/63/137 53/64/138
s 1
f 53/64/139 54/65/140 46/56/90 45/55/89
s 7
f 54/65/141 55/66/142 47/57/86 46/56/85
s 5
f 55/66/143 56/67/144 48/58/82 47/57/81
s off
f 73/85/145 74/86/146 75/87/147 76/88/148
s 2
f 57/69/149 58/70/150 50/61/130 49/60/129
s off
f 58/70/151 59/71/152 51/62/153 50/61/154
s 6
f 52/63/136 51/62/135 59/71/155 60/72/156
s 8
f 53/64/138 52/63/137 60/72/157 61/73/158
s 1
f 61/73/159 62/74/160 54/65/140 53/64/139
s 7
f 62/74/161 63/75/162 55/66/142 54/65/141
s 5
f 63/75/163 64/76/164 56/67/144 55/66/143
s off
f 64/76/165 57/68/166 49/59/167 56/67/168
s 2
f 25/33/16 32/40/15 58/70/150 57/69/149
s off
f 94/105/169 93/106/170 95/107/171 96/108/172
s 6
f 60/72/156 59/71/155 31/39/34 30/38/33
s 8
f 61/73/158 60/72/157 30/38/50 29/37/49
s 1
f 29/37/8 28/36/7 62/74/160 61/73/159
s 7
f 28/36/44 27/35/43 63/75/162 62/74/161
s 5
f 27/35/28 26/34/27 64/76/164 63/75/163
s off
f 78/89/173 77/90/174 79/91/175 80/92/176
s 2
f 1/1/58 17/23/13 66/78/177 65/77/178
s off
f 17/23/179 24/31/180 67/79/181 66/78/182
s 5
f 24/31/26 3/3/71 68/80/183 67/79/184
s 4
f 3/3/23 1/1/22 65/77/185 68/80/186
s off
f 34/43/187 33/41/188 69/82/189 70/81/190
s 2
f 33/41/108 2/2/128 71/83/191 69/82/192
s 3
f 2/2/17 4/4/20 72/84/193 71/83/194
s 5
f 4/4/113 34/43/83 70/81/195 72/84/196
s off
f 56/67/197 49/59/198 74/86/199 73/85/200
s 2
f 49/59/129 41/50/105 75/87/201 74/86/202
s off
f 41/50/203 48/58/204 76/88/205 75/87/206
s 5
f 48/58/82 56/67/144 73/85/207 76/88/208
s off
f 26/34/209 25/32/210 77/90/211 78/89/212
s 2
f 25/32/16 57/68/149 79/91/213 77/90/214
s off
f 57/68/215 64/76/216 80/92/217 79/91/218
s 5
f 64/76/164 26/34/27 78/89/219 80/92/220
s 6
f 5/5/63 19/26/35 82/94/221 81/93/222
s off
f 19/26/223 18/25/224 83/95/225 82/94/226
s 2
f 18/25/14 7/7/57 84/96/227 83/95/228
s 4
f 7/7/21 5/5/24 81/93/229 84/96/230
s off
f 40/49/231 39/48/232 85/98/233 86/97/234
s 6
f 39/48/98 6/6/121 87/99/235 85/98/236
s 3
f 6/6/19 8/8/18 88/100/237 87/99/238
s 2
f 8/8/127 40/49/107 86/97/239 88/100/240
s off
f 50/61/241 51/62/242 90/102/243 89/101/244
s 6
f 51/62/135 43/53/99 91/103/245 90/102/246
s off
f 43/53/247 42/52/248 92/104/249 91/103/250
s 2
f 42/52/106 50/61/130 89/101/251 92/104/252
s off
f 32/40/253 31/39/254 93/106/255 94/105/256
s 6
f 31/39/34 59/71/155 95/107/257 93/106/258
s off
f 59/71/259 58/70/260 96/108/261 95/107/262
s 2
f 58/70/150 32/40/15 94/105/263 96/108/264
